<?xml version="1.0" standalone="no"?>
<!DOCTYPE svg PUBLIC "-//W3C//DTD SVG 20010904//EN"
 "http://www.w3.org/TR/2001/REC-SVG-20010904/DTD/svg10.dtd">
<svg version="1.0" xmlns="http://www.w3.org/2000/svg"
 width="512.000000pt" height="512.000000pt" viewBox="0 0 512.000000 512.000000"
 preserveAspectRatio="xMidYMid meet">
<metadata>
Created by potrace 1.14, written by Peter Selinger 2001-2017
</metadata>
<g transform="translate(0.000000,512.000000) scale(0.100000,-0.100000)"
fill="#000000" stroke="none">
<path d="M2056 3675 c-89 -31 -162 -80 -218 -147 -81 -97 -92 -125 -177 -443
-28 -104 -92 -343 -142 -530 -158 -594 -151 -563 -140 -627 28 -160 134 -251
470 -403 434 -197 784 -222 1206 -85 297 96 396 148 507 263 143 149 200 389
142 589 -60 202 -230 370 -439 435 -50 15 -94 18 -275 18 -207 0 -218 -2 -295
-28 -112 -37 -192 -93 -323 -224 -62 -62 -115 -113 -118 -113 -2 0 -3 116 -2
258 l3 257 145 5 c166 6 211 21 254 88 41 61 48 115 44 309 -3 159 -6 183 -26
228 -31 67 -85 122 -150 151 -49 22 -64 24 -225 23 -154 0 -179 -3 -241 -24z
m410 -136 c77 -37 84 -59 84 -272 l0 -186 -26 -20 c-25 -20 -40 -21 -220 -21
l-194 0 0 -437 c0 -435 0 -437 22 -460 13 -14 33 -23 52 -23 27 0 55 25 216
190 274 281 303 294 617 288 189 -4 201 -5 263 -31 89 -38 152 -86 205 -157
58 -80 86 -156 92 -256 10 -148 -32 -259 -139 -367 -78 -80 -164 -124 -371
-192 -217 -71 -325 -90 -517 -90 -240 0 -387 37 -676 168 -264 120 -354 195
-354 294 0 15 40 177 90 362 49 185 128 480 175 656 47 176 93 338 102 360 24
55 108 142 167 172 65 33 110 41 250 42 102 1 126 -2 162 -20z"/>
</g>
</svg>
